<?xml version="1.0" encoding="iso-8859-1"?>
<!-- Generator: Adobe Illustrator 19.0.0, SVG Export Plug-In . SVG Version: 6.00 Build 0)  -->
<svg version="1.1" id="Layer_1" xmlns="http://www.w3.org/2000/svg" xmlns:xlink="http://www.w3.org/1999/xlink" x="0px" y="0px"
	 viewBox="0 0 496 496" style="enable-background:new 0 0 496 496;" xml:space="preserve">
<g>
	<path style="fill:#FFA64D;" d="M306.296,216C296.208,216,288,207.792,288,197.704V166.36c-29.328-14.968-48-45.168-48-78.36
		c0-48.52,39.48-88,88-88h80c48.52,0,88,39.48,88,88s-39.48,88-88,88h-66.56l-19.632,31.408C318.44,212.792,312.64,216,306.296,216z
		"/>
	<path style="fill:#FFA64D;" d="M168,496H88c-48.52,0-88-39.48-88-88s39.48-88,88-88h66.56l19.632-31.408
		c3.368-5.384,9.168-8.592,15.504-8.592c10.088,0,18.296,8.208,18.296,18.296v31.344c29.328,14.984,48,45.176,48,78.36
		C256,456.52,216.52,496,168,496z"/>
</g>
<g>
	<path style="fill:#333333;" d="M414.128,374.312C439.048,360.744,456,334.312,456,304c0-44.112-35.888-80-80-80s-80,35.888-80,80
		c0,30.32,16.952,56.744,41.872,70.312C290.36,390.296,256,435.168,256,488v8h240v-8C496,435.168,461.64,390.296,414.128,374.312z
		 M312,304c0-35.288,28.712-64,64-64s64,28.712,64,64s-28.712,64-64,64S312,339.288,312,304z M272.304,480
		c4.104-53.624,49.04-96,103.696-96s99.592,42.376,103.696,96H272.304z"/>
	<path style="fill:#333333;" d="M158.128,150.312C183.048,136.744,200,110.312,200,80c0-44.112-35.888-80-80-80S40,35.888,40,80
		c0,30.32,16.952,56.744,41.872,70.312C34.36,166.296,0,211.168,0,264v8h240v-8C240,211.168,205.64,166.296,158.128,150.312z M56,80
		c0-35.288,28.712-64,64-64s64,28.712,64,64s-28.712,64-64,64S56,115.288,56,80z M16.304,256c4.104-53.624,49.04-96,103.696-96
		s99.592,42.376,103.696,96H16.304z"/>
	<path style="fill:#333333;" d="M360,128v16h16v-16c13.232,0,24-9.336,24-20.8v-6.4c0-11.472-10.768-20.8-24-20.8h-16
		c-4.576,0-8-2.536-8-4.8v-6.4c0-2.264,3.424-4.8,8-4.8h16c4.576,0,8,2.536,8,4.8V72h16v-3.2c0-11.472-10.768-20.8-24-20.8V32h-16
		v16c-13.232,0-24,9.336-24,20.8v6.4c0,11.472,10.768,20.8,24,20.8h16c4.576,0,8,2.536,8,4.8v6.4c0,2.264-3.424,4.8-8,4.8h-16
		c-4.576,0-8-2.536-8-4.8V104h-16v3.2C336,118.664,346.768,128,360,128z"/>
	<path style="fill:#333333;" d="M128,384c-13.232,0-24,10.768-24,24s10.768,24,24,24s24-10.768,24-24S141.232,384,128,384z M128,416
		c-4.416,0-8-3.592-8-8s3.584-8,8-8s8,3.592,8,8S132.416,416,128,416z"/>
	<path style="fill:#333333;" d="M192,384c-13.232,0-24,10.768-24,24s10.768,24,24,24s24-10.768,24-24S205.232,384,192,384z M192,416
		c-4.416,0-8-3.592-8-8s3.584-8,8-8s8,3.592,8,8S196.416,416,192,416z"/>
	<path style="fill:#333333;" d="M64,384c-13.232,0-24,10.768-24,24s10.768,24,24,24s24-10.768,24-24S77.232,384,64,384z M64,416
		c-4.416,0-8-3.592-8-8s3.584-8,8-8s8,3.592,8,8S68.416,416,64,416z"/>
</g>
<g>
</g>
<g>
</g>
<g>
</g>
<g>
</g>
<g>
</g>
<g>
</g>
<g>
</g>
<g>
</g>
<g>
</g>
<g>
</g>
<g>
</g>
<g>
</g>
<g>
</g>
<g>
</g>
<g>
</g>
</svg>
